<?xml version="1.0" encoding="UTF-8" standalone="no"?>
<svg
   width="10"
   height="9.615"
   viewBox="0 0 10 9.615"
   version="1.1"
   id="svg1"
   sodipodi:docname="apagar.svg"
   xml:space="preserve"
   inkscape:version="1.3.2 (091e20e, 2023-11-25, custom)"
   xmlns:inkscape="http://www.inkscape.org/namespaces/inkscape"
   xmlns:sodipodi="http://sodipodi.sourceforge.net/DTD/sodipodi-0.dtd"
   xmlns="http://www.w3.org/2000/svg"
   xmlns:svg="http://www.w3.org/2000/svg"><defs
     id="defs1" /><sodipodi:namedview
     id="namedview1"
     pagecolor="#ffffff"
     bordercolor="#000000"
     borderopacity="0.25"
     inkscape:showpageshadow="2"
     inkscape:pageopacity="0.0"
     inkscape:pagecheckerboard="0"
     inkscape:deskcolor="#d1d1d1"
     inkscape:zoom="64"
     inkscape:cx="2.90625"
     inkscape:cy="4.6484375"
     inkscape:window-width="1920"
     inkscape:window-height="1017"
     inkscape:window-x="1912"
     inkscape:window-y="-8"
     inkscape:window-maximized="1"
     inkscape:current-layer="svg1" /><path
     style="fill:#ffffff;fill-opacity:1;stroke:#ffffff;stroke-opacity:1;stroke-linecap:round;stroke-width:0.5;stroke-dasharray:none"
     d="M 3.515625,8.1601563 V 4.46875"
     id="path1" /><path
     style="fill:#ffffff;fill-opacity:1;stroke:#ffffff;stroke-opacity:1;stroke-linecap:round;stroke-width:0.5;stroke-dasharray:none"
     d="M 5.015625,8.2109375 V 4.5078125"
     id="path2" /><path
     style="fill:#ffffff;fill-opacity:1;stroke-width:0.5;stroke-dasharray:none;stroke:#ffffff;stroke-opacity:1;stroke-linecap:round"
     d="M 6.5,8.21875 V 4.4375"
     id="path3" /><path
     style="fill:none;fill-opacity:1;stroke:#ffffff;stroke-width:0.5;stroke-dasharray:none;stroke-opacity:1"
     d="M 2.8632813,9.3164063 H 7.1445312 C 8.1563687,9.3403654 7.9394305,8.8478826 7.9921875,8.46875 V 2.7265625 h -5.96875 V 8.4375 C 1.9703319,9.0152537 2.198419,9.3525672 2.8632813,9.3164063 Z"
     id="path4"
     sodipodi:nodetypes="ccccccc" /><path
     style="fill:#ffffff;fill-opacity:1;stroke:#ffffff;stroke-opacity:1;stroke-width:0.5;stroke-dasharray:none"
     d="M 2.0195313,2.7265625 C 1.2260504,2.7690277 1.5252756,2.5383163 1.4542143,2.4001766 V 1.9335937 C 1.445046,1.5604838 1.7600427,1.5871776 2.0536602,1.5875035 h 5.9814961 c 0.5509749,-0.022828 0.4746918,0.1368192 0.4749353,0.274204 v 0.5015738 c 0.014696,0.2085111 -0.026889,0.3806048 -0.3624677,0.3624676 z"
     id="path5"
     sodipodi:nodetypes="ccccccccc" /><path
     style="fill:none;fill-opacity:1;stroke:#ffffff;stroke-width:0.5;stroke-dasharray:none;stroke-opacity:1"
     d="M 3.8398438,1.578125 3.8359375,0.8671875 C 3.7994311,0.32495354 4.0688287,0.45825771 4.2675781,0.43554688 h 1.5527344 c 0.421303,-0.0165985 0.352059,0.19412964 0.3662109,0.36621093 l -0.00781,0.78417969 z"
     id="path6"
     sodipodi:nodetypes="ccccccc" /></svg>
